# xmcd CD database file
#
# Track frame offsets:
#	150
#	53709
#	88959
#	127416
#	191616
#
# Disc length: 3277 seconds
#
# Revision: 1
# Processed by: cddbd v1.5.2PL0 Copyright (c) Steve Scherf et al.
# Submitted via: CDex 1.70beta2
#
DISCID=480ccb05
DTITLE=(音楽)飯田雅春 (朗読)森本洋子,小林幸恵,坂下絵李古,やはらみずほ - おはなしの森 Vol.4
DYEAR=2009
DGENRE=New Age
TTITLE0=魔法のバナナ
TTITLE1=かさじぞう
TTITLE2=アリとキリギリス
TTITLE3=長靴をはいた猫
TTITLE4=Dream Talk IV
EXTD=YEAR: 2009
EXTT0=
EXTT1=
EXTT2=
EXTT3=
EXTT4=
PLAYORDER=
